<svg viewBox="-16 -32 880 192" width="880" height="192" xmlns="http://www.w3.org/2000/svg"><desc>Generated with https://github.com/Platane/snk</desc><style>:root{--cb:#1b1f230a;--cs:yellow;--ce:#0EA5E9;--c0:#0EA5E9;--c1:#818CF8;--c2:#22D3EE;--c3:#6366F1}.c{shape-rendering:geometricPrecision;fill:var(--ce);stroke-width:1px;stroke:var(--cb);animation:none 26300ms linear infinite;width:12px;height:12px}@keyframes c0{6.83%{fill:var(--c1)}6.85%,100%{fill:var(--ce)}}.c.c0{fill:var(--c1);animation-name:c0}@keyframes c1{56.64%{fill:var(--c2)}56.66%,100%{fill:var(--ce)}}.c.c1{fill:var(--c2);animation-name:c1}@keyframes c2{57.02%{fill:var(--c2)}57.04%,100%{fill:var(--ce)}}.c.c2{fill:var(--c2);animation-name:c2}@keyframes c3{35.73%{fill:var(--c2)}35.75%,100%{fill:var(--ce)}}.c.c3{fill:var(--c2);animation-name:c3}@keyframes c4{18.24%{fill:var(--c1)}18.26%,100%{fill:var(--ce)}}.c.c4{fill:var(--c1);animation-name:c4}@keyframes c5{70.33%{fill:var(--c4)}70.35%,100%{fill:var(--ce)}}.c.c5{fill:var(--c4);animation-name:c5}@keyframes c6{34.21%{fill:var(--c2)}34.23%,100%{fill:var(--ce)}}.c.c6{fill:var(--c2);animation-name:c6}@keyframes c7{72.61%{fill:var(--c4)}72.63%,100%{fill:var(--ce)}}.c.c7{fill:var(--c4);animation-name:c7}@keyframes c8{78.7%{fill:var(--c4)}78.72%,100%{fill:var(--ce)}}.c.c8{fill:var(--c4);animation-name:c8}@keyframes c9{44.1%{fill:var(--c2)}44.12%,100%{fill:var(--ce)}}.c.c9{fill:var(--c2);animation-name:c9}@keyframes ca{71.85%{fill:var(--c4)}71.87%,100%{fill:var(--ce)}}.c.ca{fill:var(--c4);animation-name:ca}@keyframes cb{32.69%{fill:var(--c2)}32.71%,100%{fill:var(--ce)}}.c.cb{fill:var(--c2);animation-name:cb}@keyframes cc{31.55%{fill:var(--c1)}31.57%,100%{fill:var(--ce)}}.c.cc{fill:var(--c1);animation-name:cc}@keyframes cd{69.19%{fill:var(--c3)}69.21%,100%{fill:var(--ce)}}.c.cd{fill:var(--c3);animation-name:cd}@keyframes ce{21.28%{fill:var(--c1)}21.3%,100%{fill:var(--ce)}}.c.ce{fill:var(--c1);animation-name:ce}@keyframes cf{39.91%{fill:var(--c2)}39.93%,100%{fill:var(--ce)}}.c.cf{fill:var(--c2);animation-name:cf}@keyframes cg{31.93%{fill:var(--c2)}31.95%,100%{fill:var(--ce)}}.c.cg{fill:var(--c2);animation-name:cg}@keyframes ch{40.29%{fill:var(--c2)}40.31%,100%{fill:var(--ce)}}.c.ch{fill:var(--c2);animation-name:ch}@keyframes ci{26.99%{fill:var(--c1)}27.01%,100%{fill:var(--ce)}}.c.ci{fill:var(--c1);animation-name:ci}@keyframes cj{74.89%{fill:var(--c4)}74.91%,100%{fill:var(--ce)}}.c.cj{fill:var(--c4);animation-name:cj}@keyframes ck{41.05%{fill:var(--c2)}41.07%,100%{fill:var(--ce)}}.c.ck{fill:var(--c2);animation-name:ck}@keyframes cl{75.66%{fill:var(--c4)}75.68%,100%{fill:var(--ce)}}.c.cl{fill:var(--c4);animation-name:cl}@keyframes cm{76.04%{fill:var(--c4)}76.06%,100%{fill:var(--ce)}}.c.cm{fill:var(--c4);animation-name:cm}@keyframes cn{23.18%{fill:var(--c1)}23.2%,100%{fill:var(--ce)}}.c.cn{fill:var(--c1);animation-name:cn}@keyframes co{76.8%{fill:var(--c4)}76.82%,100%{fill:var(--ce)}}.c.co{fill:var(--c4);animation-name:co}.u{transform-origin:0 0;transform:scale(0,1);animation:none linear 26300ms infinite}@keyframes u0{6.83%{transform:scale(0.000,1)}6.85%,18.24%{transform:scale(0.167,1)}18.26%,21.28%{transform:scale(0.333,1)}21.3%,23.18%{transform:scale(0.500,1)}23.2%,26.99%{transform:scale(0.667,1)}27.01%,31.55%{transform:scale(0.833,1)}31.57%,100%{transform:scale(1.000,1)}}.u.u0{fill:var(--c1);animation-name:u0;transform-origin:0.0px 0}@keyframes u1{31.93%{transform:scale(0.000,1)}31.95%,32.69%{transform:scale(0.100,1)}32.71%,34.21%{transform:scale(0.200,1)}34.23%,35.73%{transform:scale(0.300,1)}35.75%,39.91%{transform:scale(0.400,1)}39.93%,40.29%{transform:scale(0.500,1)}40.31%,41.05%{transform:scale(0.600,1)}41.07%,44.1%{transform:scale(0.700,1)}44.12%,56.64%{transform:scale(0.800,1)}56.66%,57.02%{transform:scale(0.900,1)}57.04%,100%{transform:scale(1.000,1)}}.u.u1{fill:var(--c2);animation-name:u1;transform-origin:203.5px 0}@keyframes u2{69.19%{transform:scale(0.000,1)}69.21%,100%{transform:scale(1.000,1)}}.u.u2{fill:var(--c3);animation-name:u2;transform-origin:542.7px 0}@keyframes u3{70.33%{transform:scale(0.000,1)}70.35%,71.85%{transform:scale(0.125,1)}71.87%,72.61%{transform:scale(0.250,1)}72.63%,74.89%{transform:scale(0.375,1)}74.91%,75.66%{transform:scale(0.500,1)}75.68%,76.04%{transform:scale(0.625,1)}76.06%,76.8%{transform:scale(0.750,1)}76.82%,78.7%{transform:scale(0.875,1)}78.72%,100%{transform:scale(1.000,1)}}.u.u3{fill:var(--c4);animation-name:u3;transform-origin:576.6px 0}.s{shape-rendering:geometricPrecision;fill:var(--cs);animation:none linear 26300ms infinite}@keyframes s0{0%,99.62%{transform:translate(0px,-16px)}0.38%{transform:translate(0px,0px)}5.7%{transform:translate(224px,0px)}6.84%{transform:translate(224px,48px)}19.01%,37.26%{transform:translate(736px,48px)}19.77%{transform:translate(736px,80px)}20.91%{transform:translate(784px,80px)}21.29%{transform:translate(784px,96px)}22.05%{transform:translate(816px,96px)}22.81%,25.86%,28.9%{transform:translate(816px,64px)}23.95%{transform:translate(864px,64px)}24.33%{transform:translate(864px,48px)}24.71%{transform:translate(848px,48px)}25.1%{transform:translate(848px,64px)}27%,40.68%{transform:translate(816px,16px)}27.38%{transform:translate(800px,16px)}27.76%,32.32%,39.16%{transform:translate(800px,32px)}28.14%{transform:translate(816px,32px)}29.28%{transform:translate(800px,64px)}29.66%{transform:translate(800px,80px)}30.42%,78.33%{transform:translate(768px,80px)}31.18%,69.96%{transform:translate(768px,48px)}31.94%{transform:translate(800px,48px)}33.08%,68.06%{transform:translate(768px,32px)}33.84%,69.58%{transform:translate(768px,64px)}35.74%{transform:translate(688px,64px)}36.12%{transform:translate(688px,48px)}37.64%{transform:translate(736px,32px)}39.92%,44.49%{transform:translate(800px,0px)}40.3%{transform:translate(816px,0px)}41.44%{transform:translate(848px,16px)}42.21%{transform:translate(848px,-16px)}43.73%{transform:translate(784px,-16px)}44.11%,72.24%{transform:translate(784px,0px)}44.87%{transform:translate(800px,-16px)}56.27%{transform:translate(320px,-16px)}57.03%{transform:translate(320px,16px)}67.68%{transform:translate(768px,16px)}68.44%,71.48%{transform:translate(784px,32px)}69.2%{transform:translate(784px,64px)}70.34%{transform:translate(752px,48px)}70.72%{transform:translate(752px,32px)}72.62%{transform:translate(768px,0px)}73%{transform:translate(768px,-16px)}74.52%{transform:translate(832px,-16px)}76.81%{transform:translate(832px,80px)}78.71%{transform:translate(768px,96px)}91.25%{transform:translate(240px,96px)}92.02%{transform:translate(240px,64px)}93.16%{transform:translate(192px,64px)}93.54%{transform:translate(192px,48px)}95.06%{transform:translate(128px,48px)}95.44%{transform:translate(128px,32px)}96.2%{transform:translate(96px,32px)}96.58%{transform:translate(96px,16px)}96.96%{transform:translate(80px,16px)}97.72%{transform:translate(80px,-16px)}}.s.s0{transform:translate(0px,-16px);animation-name:s0}@keyframes s1{0%,99.62%{transform:translate(16px,-16px)}0.38%{transform:translate(0px,-16px)}0.76%{transform:translate(0px,0px)}6.08%{transform:translate(224px,0px)}7.22%{transform:translate(224px,48px)}19.39%,37.64%{transform:translate(736px,48px)}20.15%{transform:translate(736px,80px)}21.29%{transform:translate(784px,80px)}21.67%{transform:translate(784px,96px)}22.43%{transform:translate(816px,96px)}23.19%,26.24%,29.28%{transform:translate(816px,64px)}24.33%{transform:translate(864px,64px)}24.71%{transform:translate(864px,48px)}25.1%{transform:translate(848px,48px)}25.48%{transform:translate(848px,64px)}27.38%,41.06%{transform:translate(816px,16px)}27.76%{transform:translate(800px,16px)}28.14%,32.7%,39.54%{transform:translate(800px,32px)}28.52%{transform:translate(816px,32px)}29.66%{transform:translate(800px,64px)}30.04%{transform:translate(800px,80px)}30.8%,78.71%{transform:translate(768px,80px)}31.56%,70.34%{transform:translate(768px,48px)}32.32%{transform:translate(800px,48px)}33.46%,68.44%{transform:translate(768px,32px)}34.22%,69.96%{transform:translate(768px,64px)}36.12%{transform:translate(688px,64px)}36.5%{transform:translate(688px,48px)}38.02%{transform:translate(736px,32px)}40.3%,44.87%{transform:translate(800px,0px)}40.68%{transform:translate(816px,0px)}41.83%{transform:translate(848px,16px)}42.59%{transform:translate(848px,-16px)}44.11%{transform:translate(784px,-16px)}44.49%,72.62%{transform:translate(784px,0px)}45.25%{transform:translate(800px,-16px)}56.65%{transform:translate(320px,-16px)}57.41%{transform:translate(320px,16px)}68.06%{transform:translate(768px,16px)}68.82%,71.86%{transform:translate(784px,32px)}69.58%{transform:translate(784px,64px)}70.72%{transform:translate(752px,48px)}71.1%{transform:translate(752px,32px)}73%{transform:translate(768px,0px)}73.38%{transform:translate(768px,-16px)}74.9%{transform:translate(832px,-16px)}77.19%{transform:translate(832px,80px)}79.09%{transform:translate(768px,96px)}91.63%{transform:translate(240px,96px)}92.4%{transform:translate(240px,64px)}93.54%{transform:translate(192px,64px)}93.92%{transform:translate(192px,48px)}95.44%{transform:translate(128px,48px)}95.82%{transform:translate(128px,32px)}96.58%{transform:translate(96px,32px)}96.96%{transform:translate(96px,16px)}97.34%{transform:translate(80px,16px)}98.1%{transform:translate(80px,-16px)}}.s.s1{transform:translate(16px,-16px);animation-name:s1}@keyframes s2{0%,99.62%{transform:translate(32px,-16px)}0.76%{transform:translate(0px,-16px)}1.14%{transform:translate(0px,0px)}6.46%{transform:translate(224px,0px)}7.6%{transform:translate(224px,48px)}19.77%,38.02%{transform:translate(736px,48px)}20.53%{transform:translate(736px,80px)}21.67%{transform:translate(784px,80px)}22.05%{transform:translate(784px,96px)}22.81%{transform:translate(816px,96px)}23.57%,26.62%,29.66%{transform:translate(816px,64px)}24.71%{transform:translate(864px,64px)}25.1%{transform:translate(864px,48px)}25.48%{transform:translate(848px,48px)}25.86%{transform:translate(848px,64px)}27.76%,41.44%{transform:translate(816px,16px)}28.14%{transform:translate(800px,16px)}28.52%,33.08%,39.92%{transform:translate(800px,32px)}28.9%{transform:translate(816px,32px)}30.04%{transform:translate(800px,64px)}30.42%{transform:translate(800px,80px)}31.18%,79.09%{transform:translate(768px,80px)}31.94%,70.72%{transform:translate(768px,48px)}32.7%{transform:translate(800px,48px)}33.84%,68.82%{transform:translate(768px,32px)}34.6%,70.34%{transform:translate(768px,64px)}36.5%{transform:translate(688px,64px)}36.88%{transform:translate(688px,48px)}38.4%{transform:translate(736px,32px)}40.68%,45.25%{transform:translate(800px,0px)}41.06%{transform:translate(816px,0px)}42.21%{transform:translate(848px,16px)}42.97%{transform:translate(848px,-16px)}44.49%{transform:translate(784px,-16px)}44.87%,73%{transform:translate(784px,0px)}45.63%{transform:translate(800px,-16px)}57.03%{transform:translate(320px,-16px)}57.79%{transform:translate(320px,16px)}68.44%{transform:translate(768px,16px)}69.2%,72.24%{transform:translate(784px,32px)}69.96%{transform:translate(784px,64px)}71.1%{transform:translate(752px,48px)}71.48%{transform:translate(752px,32px)}73.38%{transform:translate(768px,0px)}73.76%{transform:translate(768px,-16px)}75.29%{transform:translate(832px,-16px)}77.57%{transform:translate(832px,80px)}79.47%{transform:translate(768px,96px)}92.02%{transform:translate(240px,96px)}92.78%{transform:translate(240px,64px)}93.92%{transform:translate(192px,64px)}94.3%{transform:translate(192px,48px)}95.82%{transform:translate(128px,48px)}96.2%{transform:translate(128px,32px)}96.96%{transform:translate(96px,32px)}97.34%{transform:translate(96px,16px)}97.72%{transform:translate(80px,16px)}98.48%{transform:translate(80px,-16px)}}.s.s2{transform:translate(32px,-16px);animation-name:s2}@keyframes s3{0%,99.62%{transform:translate(48px,-16px)}1.14%{transform:translate(0px,-16px)}1.52%{transform:translate(0px,0px)}6.84%{transform:translate(224px,0px)}7.98%{transform:translate(224px,48px)}20.15%,38.4%{transform:translate(736px,48px)}20.91%{transform:translate(736px,80px)}22.05%{transform:translate(784px,80px)}22.43%{transform:translate(784px,96px)}23.19%{transform:translate(816px,96px)}23.95%,27%,30.04%{transform:translate(816px,64px)}25.1%{transform:translate(864px,64px)}25.48%{transform:translate(864px,48px)}25.86%{transform:translate(848px,48px)}26.24%{transform:translate(848px,64px)}28.14%,41.83%{transform:translate(816px,16px)}28.52%{transform:translate(800px,16px)}28.9%,33.46%,40.3%{transform:translate(800px,32px)}29.28%{transform:translate(816px,32px)}30.42%{transform:translate(800px,64px)}30.8%{transform:translate(800px,80px)}31.56%,79.47%{transform:translate(768px,80px)}32.32%,71.1%{transform:translate(768px,48px)}33.08%{transform:translate(800px,48px)}34.22%,69.2%{transform:translate(768px,32px)}34.98%,70.72%{transform:translate(768px,64px)}36.88%{transform:translate(688px,64px)}37.26%{transform:translate(688px,48px)}38.78%{transform:translate(736px,32px)}41.06%,45.63%{transform:translate(800px,0px)}41.44%{transform:translate(816px,0px)}42.59%{transform:translate(848px,16px)}43.35%{transform:translate(848px,-16px)}44.87%{transform:translate(784px,-16px)}45.25%,73.38%{transform:translate(784px,0px)}46.01%{transform:translate(800px,-16px)}57.41%{transform:translate(320px,-16px)}58.17%{transform:translate(320px,16px)}68.82%{transform:translate(768px,16px)}69.58%,72.62%{transform:translate(784px,32px)}70.34%{transform:translate(784px,64px)}71.48%{transform:translate(752px,48px)}71.86%{transform:translate(752px,32px)}73.76%{transform:translate(768px,0px)}74.14%{transform:translate(768px,-16px)}75.67%{transform:translate(832px,-16px)}77.95%{transform:translate(832px,80px)}79.85%{transform:translate(768px,96px)}92.4%{transform:translate(240px,96px)}93.16%{transform:translate(240px,64px)}94.3%{transform:translate(192px,64px)}94.68%{transform:translate(192px,48px)}96.2%{transform:translate(128px,48px)}96.58%{transform:translate(128px,32px)}97.34%{transform:translate(96px,32px)}97.72%{transform:translate(96px,16px)}98.1%{transform:translate(80px,16px)}98.86%{transform:translate(80px,-16px)}}.s.s3{transform:translate(48px,-16px);animation-name:s3}</style><rect class="c" x="2" y="2" rx="2" ry="2"/><rect class="c" x="2" y="18" rx="2" ry="2"/><rect class="c" x="2" y="34" rx="2" ry="2"/><rect class="c" x="2" y="50" rx="2" ry="2"/><rect class="c" x="2" y="66" rx="2" ry="2"/><rect class="c" x="2" y="82" rx="2" ry="2"/><rect class="c" x="2" y="98" rx="2" ry="2"/><rect class="c" x="18" y="2" rx="2" ry="2"/><rect class="c" x="18" y="18" rx="2" ry="2"/><rect class="c" x="18" y="34" rx="2" ry="2"/><rect class="c" x="18" y="50" rx="2" ry="2"/><rect class="c" x="18" y="66" rx="2" ry="2"/><rect class="c" x="18" y="82" rx="2" ry="2"/><rect class="c" x="18" y="98" rx="2" ry="2"/><rect class="c" x="34" y="2" rx="2" ry="2"/><rect class="c" x="34" y="18" rx="2" ry="2"/><rect class="c" x="34" y="34" rx="2" ry="2"/><rect class="c" x="34" y="50" rx="2" ry="2"/><rect class="c" x="34" y="66" rx="2" ry="2"/><rect class="c" x="34" y="82" rx="2" ry="2"/><rect class="c" x="34" y="98" rx="2" ry="2"/><rect class="c" x="50" y="2" rx="2" ry="2"/><rect class="c" x="50" y="18" rx="2" ry="2"/><rect class="c" x="50" y="34" rx="2" ry="2"/><rect class="c" x="50" y="50" rx="2" ry="2"/><rect class="c" x="50" y="66" rx="2" ry="2"/><rect class="c" x="50" y="82" rx="2" ry="2"/><rect class="c" x="50" y="98" rx="2" ry="2"/><rect class="c" x="66" y="2" rx="2" ry="2"/><rect class="c" x="66" y="18" rx="2" ry="2"/><rect class="c" x="66" y="34" rx="2" ry="2"/><rect class="c" x="66" y="50" rx="2" ry="2"/><rect class="c" x="66" y="66" rx="2" ry="2"/><rect class="c" x="66" y="82" rx="2" ry="2"/><rect class="c" x="66" y="98" rx="2" ry="2"/><rect class="c" x="82" y="2" rx="2" ry="2"/><rect class="c" x="82" y="18" rx="2" ry="2"/><rect class="c" x="82" y="34" rx="2" ry="2"/><rect class="c" x="82" y="50" rx="2" ry="2"/><rect class="c" x="82" y="66" rx="2" ry="2"/><rect class="c" x="82" y="82" rx="2" ry="2"/><rect class="c" x="82" y="98" rx="2" ry="2"/><rect class="c" x="98" y="2" rx="2" ry="2"/><rect class="c" x="98" y="18" rx="2" ry="2"/><rect class="c" x="98" y="34" rx="2" ry="2"/><rect class="c" x="98" y="50" rx="2" ry="2"/><rect class="c" x="98" y="66" rx="2" ry="2"/><rect class="c" x="98" y="82" rx="2" ry="2"/><rect class="c" x="98" y="98" rx="2" ry="2"/><rect class="c" x="114" y="2" rx="2" ry="2"/><rect class="c" x="114" y="18" rx="2" ry="2"/><rect class="c" x="114" y="34" rx="2" ry="2"/><rect class="c" x="114" y="50" rx="2" ry="2"/><rect class="c" x="114" y="66" rx="2" ry="2"/><rect class="c" x="114" y="82" rx="2" ry="2"/><rect class="c" x="114" y="98" rx="2" ry="2"/><rect class="c" x="130" y="2" rx="2" ry="2"/><rect class="c" x="130" y="18" rx="2" ry="2"/><rect class="c" x="130" y="34" rx="2" ry="2"/><rect class="c" x="130" y="50" rx="2" ry="2"/><rect class="c" x="130" y="66" rx="2" ry="2"/><rect class="c" x="130" y="82" rx="2" ry="2"/><rect class="c" x="130" y="98" rx="2" ry="2"/><rect class="c" x="146" y="2" rx="2" ry="2"/><rect class="c" x="146" y="18" rx="2" ry="2"/><rect class="c" x="146" y="34" rx="2" ry="2"/><rect class="c" x="146" y="50" rx="2" ry="2"/><rect class="c" x="146" y="66" rx="2" ry="2"/><rect class="c" x="146" y="82" rx="2" ry="2"/><rect class="c" x="146" y="98" rx="2" ry="2"/><rect class="c" x="162" y="2" rx="2" ry="2"/><rect class="c" x="162" y="18" rx="2" ry="2"/><rect class="c" x="162" y="34" rx="2" ry="2"/><rect class="c" x="162" y="50" rx="2" ry="2"/><rect class="c" x="162" y="66" rx="2" ry="2"/><rect class="c" x="162" y="82" rx="2" ry="2"/><rect class="c" x="162" y="98" rx="2" ry="2"/><rect class="c" x="178" y="2" rx="2" ry="2"/><rect class="c" x="178" y="18" rx="2" ry="2"/><rect class="c" x="178" y="34" rx="2" ry="2"/><rect class="c" x="178" y="50" rx="2" ry="2"/><rect class="c" x="178" y="66" rx="2" ry="2"/><rect class="c" x="178" y="82" rx="2" ry="2"/><rect class="c" x="178" y="98" rx="2" ry="2"/><rect class="c" x="194" y="2" rx="2" ry="2"/><rect class="c" x="194" y="18" rx="2" ry="2"/><rect class="c" x="194" y="34" rx="2" ry="2"/><rect class="c" x="194" y="50" rx="2" ry="2"/><rect class="c" x="194" y="66" rx="2" ry="2"/><rect class="c" x="194" y="82" rx="2" ry="2"/><rect class="c" x="194" y="98" rx="2" ry="2"/><rect class="c" x="210" y="2" rx="2" ry="2"/><rect class="c" x="210" y="18" rx="2" ry="2"/><rect class="c" x="210" y="34" rx="2" ry="2"/><rect class="c" x="210" y="50" rx="2" ry="2"/><rect class="c" x="210" y="66" rx="2" ry="2"/><rect class="c" x="210" y="82" rx="2" ry="2"/><rect class="c" x="210" y="98" rx="2" ry="2"/><rect class="c" x="226" y="2" rx="2" ry="2"/><rect class="c" x="226" y="18" rx="2" ry="2"/><rect class="c" x="226" y="34" rx="2" ry="2"/><rect class="c c0" x="226" y="50" rx="2" ry="2"/><rect class="c" x="226" y="66" rx="2" ry="2"/><rect class="c" x="226" y="82" rx="2" ry="2"/><rect class="c" x="226" y="98" rx="2" ry="2"/><rect class="c" x="242" y="2" rx="2" ry="2"/><rect class="c" x="242" y="18" rx="2" ry="2"/><rect class="c" x="242" y="34" rx="2" ry="2"/><rect class="c" x="242" y="50" rx="2" ry="2"/><rect class="c" x="242" y="66" rx="2" ry="2"/><rect class="c" x="242" y="82" rx="2" ry="2"/><rect class="c" x="242" y="98" rx="2" ry="2"/><rect class="c" x="258" y="2" rx="2" ry="2"/><rect class="c" x="258" y="18" rx="2" ry="2"/><rect class="c" x="258" y="34" rx="2" ry="2"/><rect class="c" x="258" y="50" rx="2" ry="2"/><rect class="c" x="258" y="66" rx="2" ry="2"/><rect class="c" x="258" y="82" rx="2" ry="2"/><rect class="c" x="258" y="98" rx="2" ry="2"/><rect class="c" x="274" y="2" rx="2" ry="2"/><rect class="c" x="274" y="18" rx="2" ry="2"/><rect class="c" x="274" y="34" rx="2" ry="2"/><rect class="c" x="274" y="50" rx="2" ry="2"/><rect class="c" x="274" y="66" rx="2" ry="2"/><rect class="c" x="274" y="82" rx="2" ry="2"/><rect class="c" x="274" y="98" rx="2" ry="2"/><rect class="c" x="290" y="2" rx="2" ry="2"/><rect class="c" x="290" y="18" rx="2" ry="2"/><rect class="c" x="290" y="34" rx="2" ry="2"/><rect class="c" x="290" y="50" rx="2" ry="2"/><rect class="c" x="290" y="66" rx="2" ry="2"/><rect class="c" x="290" y="82" rx="2" ry="2"/><rect class="c" x="290" y="98" rx="2" ry="2"/><rect class="c" x="306" y="2" rx="2" ry="2"/><rect class="c" x="306" y="18" rx="2" ry="2"/><rect class="c" x="306" y="34" rx="2" ry="2"/><rect class="c" x="306" y="50" rx="2" ry="2"/><rect class="c" x="306" y="66" rx="2" ry="2"/><rect class="c" x="306" y="82" rx="2" ry="2"/><rect class="c" x="306" y="98" rx="2" ry="2"/><rect class="c c1" x="322" y="2" rx="2" ry="2"/><rect class="c c2" x="322" y="18" rx="2" ry="2"/><rect class="c" x="322" y="34" rx="2" ry="2"/><rect class="c" x="322" y="50" rx="2" ry="2"/><rect class="c" x="322" y="66" rx="2" ry="2"/><rect class="c" x="322" y="82" rx="2" ry="2"/><rect class="c" x="322" y="98" rx="2" ry="2"/><rect class="c" x="338" y="2" rx="2" ry="2"/><rect class="c" x="338" y="18" rx="2" ry="2"/><rect class="c" x="338" y="34" rx="2" ry="2"/><rect class="c" x="338" y="50" rx="2" ry="2"/><rect class="c" x="338" y="66" rx="2" ry="2"/><rect class="c" x="338" y="82" rx="2" ry="2"/><rect class="c" x="338" y="98" rx="2" ry="2"/><rect class="c" x="354" y="2" rx="2" ry="2"/><rect class="c" x="354" y="18" rx="2" ry="2"/><rect class="c" x="354" y="34" rx="2" ry="2"/><rect class="c" x="354" y="50" rx="2" ry="2"/><rect class="c" x="354" y="66" rx="2" ry="2"/><rect class="c" x="354" y="82" rx="2" ry="2"/><rect class="c" x="354" y="98" rx="2" ry="2"/><rect class="c" x="370" y="2" rx="2" ry="2"/><rect class="c" x="370" y="18" rx="2" ry="2"/><rect class="c" x="370" y="34" rx="2" ry="2"/><rect class="c" x="370" y="50" rx="2" ry="2"/><rect class="c" x="370" y="66" rx="2" ry="2"/><rect class="c" x="370" y="82" rx="2" ry="2"/><rect class="c" x="370" y="98" rx="2" ry="2"/><rect class="c" x="386" y="2" rx="2" ry="2"/><rect class="c" x="386" y="18" rx="2" ry="2"/><rect class="c" x="386" y="34" rx="2" ry="2"/><rect class="c" x="386" y="50" rx="2" ry="2"/><rect class="c" x="386" y="66" rx="2" ry="2"/><rect class="c" x="386" y="82" rx="2" ry="2"/><rect class="c" x="386" y="98" rx="2" ry="2"/><rect class="c" x="402" y="2" rx="2" ry="2"/><rect class="c" x="402" y="18" rx="2" ry="2"/><rect class="c" x="402" y="34" rx="2" ry="2"/><rect class="c" x="402" y="50" rx="2" ry="2"/><rect class="c" x="402" y="66" rx="2" ry="2"/><rect class="c" x="402" y="82" rx="2" ry="2"/><rect class="c" x="402" y="98" rx="2" ry="2"/><rect class="c" x="418" y="2" rx="2" ry="2"/><rect class="c" x="418" y="18" rx="2" ry="2"/><rect class="c" x="418" y="34" rx="2" ry="2"/><rect class="c" x="418" y="50" rx="2" ry="2"/><rect class="c" x="418" y="66" rx="2" ry="2"/><rect class="c" x="418" y="82" rx="2" ry="2"/><rect class="c" x="418" y="98" rx="2" ry="2"/><rect class="c" x="434" y="2" rx="2" ry="2"/><rect class="c" x="434" y="18" rx="2" ry="2"/><rect class="c" x="434" y="34" rx="2" ry="2"/><rect class="c" x="434" y="50" rx="2" ry="2"/><rect class="c" x="434" y="66" rx="2" ry="2"/><rect class="c" x="434" y="82" rx="2" ry="2"/><rect class="c" x="434" y="98" rx="2" ry="2"/><rect class="c" x="450" y="2" rx="2" ry="2"/><rect class="c" x="450" y="18" rx="2" ry="2"/><rect class="c" x="450" y="34" rx="2" ry="2"/><rect class="c" x="450" y="50" rx="2" ry="2"/><rect class="c" x="450" y="66" rx="2" ry="2"/><rect class="c" x="450" y="82" rx="2" ry="2"/><rect class="c" x="450" y="98" rx="2" ry="2"/><rect class="c" x="466" y="2" rx="2" ry="2"/><rect class="c" x="466" y="18" rx="2" ry="2"/><rect class="c" x="466" y="34" rx="2" ry="2"/><rect class="c" x="466" y="50" rx="2" ry="2"/><rect class="c" x="466" y="66" rx="2" ry="2"/><rect class="c" x="466" y="82" rx="2" ry="2"/><rect class="c" x="466" y="98" rx="2" ry="2"/><rect class="c" x="482" y="2" rx="2" ry="2"/><rect class="c" x="482" y="18" rx="2" ry="2"/><rect class="c" x="482" y="34" rx="2" ry="2"/><rect class="c" x="482" y="50" rx="2" ry="2"/><rect class="c" x="482" y="66" rx="2" ry="2"/><rect class="c" x="482" y="82" rx="2" ry="2"/><rect class="c" x="482" y="98" rx="2" ry="2"/><rect class="c" x="498" y="2" rx="2" ry="2"/><rect class="c" x="498" y="18" rx="2" ry="2"/><rect class="c" x="498" y="34" rx="2" ry="2"/><rect class="c" x="498" y="50" rx="2" ry="2"/><rect class="c" x="498" y="66" rx="2" ry="2"/><rect class="c" x="498" y="82" rx="2" ry="2"/><rect class="c" x="498" y="98" rx="2" ry="2"/><rect class="c" x="514" y="2" rx="2" ry="2"/><rect class="c" x="514" y="18" rx="2" ry="2"/><rect class="c" x="514" y="34" rx="2" ry="2"/><rect class="c" x="514" y="50" rx="2" ry="2"/><rect class="c" x="514" y="66" rx="2" ry="2"/><rect class="c" x="514" y="82" rx="2" ry="2"/><rect class="c" x="514" y="98" rx="2" ry="2"/><rect class="c" x="530" y="2" rx="2" ry="2"/><rect class="c" x="530" y="18" rx="2" ry="2"/><rect class="c" x="530" y="34" rx="2" ry="2"/><rect class="c" x="530" y="50" rx="2" ry="2"/><rect class="c" x="530" y="66" rx="2" ry="2"/><rect class="c" x="530" y="82" rx="2" ry="2"/><rect class="c" x="530" y="98" rx="2" ry="2"/><rect class="c" x="546" y="2" rx="2" ry="2"/><rect class="c" x="546" y="18" rx="2" ry="2"/><rect class="c" x="546" y="34" rx="2" ry="2"/><rect class="c" x="546" y="50" rx="2" ry="2"/><rect class="c" x="546" y="66" rx="2" ry="2"/><rect class="c" x="546" y="82" rx="2" ry="2"/><rect class="c" x="546" y="98" rx="2" ry="2"/><rect class="c" x="562" y="2" rx="2" ry="2"/><rect class="c" x="562" y="18" rx="2" ry="2"/><rect class="c" x="562" y="34" rx="2" ry="2"/><rect class="c" x="562" y="50" rx="2" ry="2"/><rect class="c" x="562" y="66" rx="2" ry="2"/><rect class="c" x="562" y="82" rx="2" ry="2"/><rect class="c" x="562" y="98" rx="2" ry="2"/><rect class="c" x="578" y="2" rx="2" ry="2"/><rect class="c" x="578" y="18" rx="2" ry="2"/><rect class="c" x="578" y="34" rx="2" ry="2"/><rect class="c" x="578" y="50" rx="2" ry="2"/><rect class="c" x="578" y="66" rx="2" ry="2"/><rect class="c" x="578" y="82" rx="2" ry="2"/><rect class="c" x="578" y="98" rx="2" ry="2"/><rect class="c" x="594" y="2" rx="2" ry="2"/><rect class="c" x="594" y="18" rx="2" ry="2"/><rect class="c" x="594" y="34" rx="2" ry="2"/><rect class="c" x="594" y="50" rx="2" ry="2"/><rect class="c" x="594" y="66" rx="2" ry="2"/><rect class="c" x="594" y="82" rx="2" ry="2"/><rect class="c" x="594" y="98" rx="2" ry="2"/><rect class="c" x="610" y="2" rx="2" ry="2"/><rect class="c" x="610" y="18" rx="2" ry="2"/><rect class="c" x="610" y="34" rx="2" ry="2"/><rect class="c" x="610" y="50" rx="2" ry="2"/><rect class="c" x="610" y="66" rx="2" ry="2"/><rect class="c" x="610" y="82" rx="2" ry="2"/><rect class="c" x="610" y="98" rx="2" ry="2"/><rect class="c" x="626" y="2" rx="2" ry="2"/><rect class="c" x="626" y="18" rx="2" ry="2"/><rect class="c" x="626" y="34" rx="2" ry="2"/><rect class="c" x="626" y="50" rx="2" ry="2"/><rect class="c" x="626" y="66" rx="2" ry="2"/><rect class="c" x="626" y="82" rx="2" ry="2"/><rect class="c" x="626" y="98" rx="2" ry="2"/><rect class="c" x="642" y="2" rx="2" ry="2"/><rect class="c" x="642" y="18" rx="2" ry="2"/><rect class="c" x="642" y="34" rx="2" ry="2"/><rect class="c" x="642" y="50" rx="2" ry="2"/><rect class="c" x="642" y="66" rx="2" ry="2"/><rect class="c" x="642" y="82" rx="2" ry="2"/><rect class="c" x="642" y="98" rx="2" ry="2"/><rect class="c" x="658" y="2" rx="2" ry="2"/><rect class="c" x="658" y="18" rx="2" ry="2"/><rect class="c" x="658" y="34" rx="2" ry="2"/><rect class="c" x="658" y="50" rx="2" ry="2"/><rect class="c" x="658" y="66" rx="2" ry="2"/><rect class="c" x="658" y="82" rx="2" ry="2"/><rect class="c" x="658" y="98" rx="2" ry="2"/><rect class="c" x="674" y="2" rx="2" ry="2"/><rect class="c" x="674" y="18" rx="2" ry="2"/><rect class="c" x="674" y="34" rx="2" ry="2"/><rect class="c" x="674" y="50" rx="2" ry="2"/><rect class="c" x="674" y="66" rx="2" ry="2"/><rect class="c" x="674" y="82" rx="2" ry="2"/><rect class="c" x="674" y="98" rx="2" ry="2"/><rect class="c" x="690" y="2" rx="2" ry="2"/><rect class="c" x="690" y="18" rx="2" ry="2"/><rect class="c" x="690" y="34" rx="2" ry="2"/><rect class="c" x="690" y="50" rx="2" ry="2"/><rect class="c c3" x="690" y="66" rx="2" ry="2"/><rect class="c" x="690" y="82" rx="2" ry="2"/><rect class="c" x="690" y="98" rx="2" ry="2"/><rect class="c" x="706" y="2" rx="2" ry="2"/><rect class="c" x="706" y="18" rx="2" ry="2"/><rect class="c" x="706" y="34" rx="2" ry="2"/><rect class="c c4" x="706" y="50" rx="2" ry="2"/><rect class="c" x="706" y="66" rx="2" ry="2"/><rect class="c" x="706" y="82" rx="2" ry="2"/><rect class="c" x="706" y="98" rx="2" ry="2"/><rect class="c" x="722" y="2" rx="2" ry="2"/><rect class="c" x="722" y="18" rx="2" ry="2"/><rect class="c" x="722" y="34" rx="2" ry="2"/><rect class="c" x="722" y="50" rx="2" ry="2"/><rect class="c" x="722" y="66" rx="2" ry="2"/><rect class="c" x="722" y="82" rx="2" ry="2"/><rect class="c" x="722" y="98" rx="2" ry="2"/><rect class="c" x="738" y="2" rx="2" ry="2"/><rect class="c" x="738" y="18" rx="2" ry="2"/><rect class="c" x="738" y="34" rx="2" ry="2"/><rect class="c" x="738" y="50" rx="2" ry="2"/><rect class="c" x="738" y="66" rx="2" ry="2"/><rect class="c" x="738" y="82" rx="2" ry="2"/><rect class="c" x="738" y="98" rx="2" ry="2"/><rect class="c" x="754" y="2" rx="2" ry="2"/><rect class="c" x="754" y="18" rx="2" ry="2"/><rect class="c" x="754" y="34" rx="2" ry="2"/><rect class="c c5" x="754" y="50" rx="2" ry="2"/><rect class="c c6" x="754" y="66" rx="2" ry="2"/><rect class="c" x="754" y="82" rx="2" ry="2"/><rect class="c" x="754" y="98" rx="2" ry="2"/><rect class="c c7" x="770" y="2" rx="2" ry="2"/><rect class="c" x="770" y="18" rx="2" ry="2"/><rect class="c" x="770" y="34" rx="2" ry="2"/><rect class="c" x="770" y="50" rx="2" ry="2"/><rect class="c" x="770" y="66" rx="2" ry="2"/><rect class="c" x="770" y="82" rx="2" ry="2"/><rect class="c c8" x="770" y="98" rx="2" ry="2"/><rect class="c c9" x="786" y="2" rx="2" ry="2"/><rect class="c ca" x="786" y="18" rx="2" ry="2"/><rect class="c cb" x="786" y="34" rx="2" ry="2"/><rect class="c cc" x="786" y="50" rx="2" ry="2"/><rect class="c cd" x="786" y="66" rx="2" ry="2"/><rect class="c" x="786" y="82" rx="2" ry="2"/><rect class="c ce" x="786" y="98" rx="2" ry="2"/><rect class="c cf" x="802" y="2" rx="2" ry="2"/><rect class="c" x="802" y="18" rx="2" ry="2"/><rect class="c" x="802" y="34" rx="2" ry="2"/><rect class="c cg" x="802" y="50" rx="2" ry="2"/><rect class="c" x="802" y="66" rx="2" ry="2"/><rect class="c" x="802" y="82" rx="2" ry="2"/><rect class="c" x="802" y="98" rx="2" ry="2"/><rect class="c ch" x="818" y="2" rx="2" ry="2"/><rect class="c ci" x="818" y="18" rx="2" ry="2"/><rect class="c" x="818" y="34" rx="2" ry="2"/><rect class="c" x="818" y="50" rx="2" ry="2"/><rect class="c" x="818" y="66" rx="2" ry="2"/><rect class="c" x="818" y="82" rx="2" ry="2"/><rect class="c" x="818" y="98" rx="2" ry="2"/><rect class="c cj" x="834" y="2" rx="2" ry="2"/><rect class="c ck" x="834" y="18" rx="2" ry="2"/><rect class="c cl" x="834" y="34" rx="2" ry="2"/><rect class="c cm" x="834" y="50" rx="2" ry="2"/><rect class="c cn" x="834" y="66" rx="2" ry="2"/><rect class="c co" x="834" y="82" rx="2" ry="2"/><rect class="c" x="834" y="98" rx="2" ry="2"/><rect class="u u0" height="12" width="204.1" x="0.0" y="144"/><rect class="u u1" height="12" width="339.8" x="203.5" y="144"/><rect class="u u2" height="12" width="34.5" x="542.7" y="144"/><rect class="u u3" height="12" width="272.0" x="576.6" y="144"/><rect class="s s0" x="0.8" y="0.8" width="14.4" height="14.4" rx="4.5" ry="4.5"/><rect class="s s1" x="1.8" y="1.8" width="12.3" height="12.3" rx="4.1" ry="4.1"/><rect class="s s2" x="2.6" y="2.6" width="10.8" height="10.8" rx="3.6" ry="3.6"/><rect class="s s3" x="3.0" y="3.0" width="9.9" height="9.9" rx="3.3" ry="3.3"/></svg>